<svg width="567" height="567" viewBox="0 0 567 567" fill="none" xmlns="http://www.w3.org/2000/svg">
<g filter="url(#filter0_d_42_9105)">
<g clip-path="url(#clip0_42_9105)">
<rect x="33.066" y="33.066" width="500" height="500" rx="33" fill="black"/>
<rect x="33.066" y="33.066" width="500" height="500" rx="33" fill="url(#paint0_linear_42_9105)" fill-opacity="0.53"/>
<path d="M290.806 59.8205C285.953 62.6603 279.015 66.7223 275.349 68.8791L268.698 72.7974V87.6794V102.597L271.395 103.568C272.868 104.107 274.198 104.574 274.378 104.574C274.522 104.61 274.63 103.748 274.63 102.705V100.836L278.081 99.0386C279.986 98.0321 281.675 97.1694 281.855 97.1335C282.358 96.9178 282.25 106.192 281.747 106.695C281.316 107.127 281.28 107.127 286.492 108.996C288.182 109.607 289.727 110.254 289.979 110.434C290.231 110.65 291.417 110.254 293.286 109.319C294.868 108.493 296.27 107.846 296.378 107.846C296.485 107.846 296.557 110.038 296.557 112.698V117.515L293.322 119.205L290.087 120.858V124.956C290.087 127.221 290.159 129.054 290.267 129.054C290.374 129.054 291.74 128.407 293.322 127.616C294.904 126.826 296.27 126.179 296.378 126.179C296.485 126.179 296.557 128.371 296.557 131.031V135.884L293.322 137.502L290.087 139.12V143.253C290.087 145.518 290.159 147.387 290.267 147.387C290.374 147.387 291.74 146.74 293.322 145.949C294.904 145.159 296.27 144.512 296.378 144.512C296.485 144.512 296.557 146.668 296.557 149.257V154.037L293.322 155.763L290.087 157.488V161.622C290.087 163.887 290.159 165.72 290.267 165.72C290.374 165.72 291.74 165.073 293.322 164.282C294.904 163.492 296.27 162.845 296.378 162.845C296.485 162.845 296.557 165.001 296.557 167.625V172.406L293.322 173.988L290.087 175.57V179.811V184.053L292.963 182.615C294.544 181.825 295.982 181.177 296.198 181.177C296.414 181.177 296.557 182.939 296.557 185.958V190.739L293.322 192.321L290.087 193.903V198.144V202.386L293.322 200.769L296.593 199.151L296.485 204.076L296.378 209.036L293.25 210.654L290.087 212.272V217.053C290.087 221.69 290.051 221.833 289.368 221.654C288.973 221.546 288.361 221.366 288.038 221.294C287.678 221.186 286.708 220.935 285.881 220.719L284.335 220.324V167.158C284.335 137.897 284.264 113.957 284.228 113.957C284.156 113.957 275.636 111.045 265.284 107.486C254.967 103.927 246.268 101.016 245.98 101.016C245.513 101.016 218.804 114.532 209.314 119.6L205.612 121.577V161.299C205.612 192.932 205.504 200.984 205.18 200.876C204.929 200.769 203.311 200.337 201.586 199.87L198.422 199.043V174.348V149.688L189.543 146.417C184.619 144.619 179.55 142.786 178.256 142.319L175.847 141.492L159.384 145.913C150.289 148.322 142.273 150.479 141.554 150.658L140.188 151.018V191.566V232.114L123.041 248.254C95.0747 274.532 88.4245 280.822 88.4245 280.966C88.4245 281.038 90.3297 281.11 92.6662 281.11L96.872 281.074L103.882 274.388C107.728 270.685 117.937 260.944 126.528 252.712C155.681 224.889 158.701 222.013 168.227 212.847C173.475 207.814 178.687 202.818 179.802 201.703C181.671 199.906 181.887 199.798 182.534 200.265C182.929 200.553 192.779 209.252 204.389 219.641C216 230.029 228.042 240.778 231.098 243.509C239.402 250.915 265.104 273.849 267.081 275.61L268.806 277.156H302.848H336.89L342.857 273.13C347.997 269.715 355.187 264.574 362.628 259.003L364.497 257.601V192.393C364.497 138.472 364.425 127.257 364.03 127.509C363.778 127.652 360.615 129.881 357.02 132.433L350.478 137.071V195.988C350.478 228.376 350.37 254.869 350.226 254.833C350.046 254.833 348.824 253.431 347.422 251.705L344.906 248.578L344.726 244.804L344.547 241.029L341.779 239.987L338.975 238.944V233.948V228.987L340.88 229.742C343.864 230.928 344.403 231.144 344.583 231.144C344.69 231.144 344.69 229.239 344.654 226.938L344.547 222.732L341.851 221.762L339.155 220.791L339.047 215.902C339.011 213.206 339.047 211.013 339.119 211.013C339.226 211.013 340.377 211.409 341.707 211.912C343.001 212.415 344.223 212.811 344.403 212.811C344.583 212.811 344.726 210.977 344.726 208.749V204.651L341.958 203.608L339.155 202.566L339.047 197.641L338.939 192.752L341.671 193.795C343.181 194.37 344.475 194.837 344.583 194.837C344.69 194.837 344.69 192.932 344.654 190.632L344.547 186.426L341.779 185.383L338.975 184.305V179.524C338.975 176.864 339.047 174.707 339.155 174.707C339.226 174.707 340.377 175.102 341.707 175.606C343.001 176.109 344.223 176.504 344.403 176.504C344.583 176.504 344.726 174.671 344.726 172.406V168.344L341.958 167.266L339.155 166.224L339.047 161.299L338.939 156.374L341.204 157.237C342.462 157.704 343.756 158.207 344.115 158.351C344.69 158.603 344.726 158.315 344.654 154.361L344.547 150.119L341.779 149.077L338.975 147.998V143.217C338.975 140.557 339.119 138.401 339.262 138.401C339.442 138.401 340.592 138.796 341.851 139.299C343.109 139.803 344.259 140.198 344.439 140.198C344.583 140.198 344.726 138.868 344.726 137.25C344.726 134.482 344.798 134.231 345.661 133.548L346.596 132.793L342.893 131.319L339.155 129.845L339.047 124.956C339.011 122.26 339.011 120.068 339.083 120.068C339.119 120.068 340.952 120.787 343.109 121.649L347.063 123.231L347.243 127.796L347.422 132.326L351.197 129.665L354.935 127.005L354.863 102.058C354.791 88.3264 354.648 77.0032 354.504 76.8594C354.216 76.5718 344.151 72.1863 319.995 61.7976C305.185 55.435 303.172 54.6442 301.482 54.6801C299.757 54.6801 299.002 55.0755 290.806 59.8205ZM296.557 76.3921V81.2449L292.603 83.222L288.649 85.1991V80.3462V75.4934L292.531 73.5522C294.652 72.4738 296.414 71.5752 296.485 71.5752C296.521 71.5392 296.557 73.732 296.557 76.3921ZM316.616 74.8823C316.939 75.098 317.047 76.5358 317.047 80.0586C317.047 83.7971 316.939 84.8755 316.616 84.7318C316.364 84.6239 314.495 83.869 312.482 83.0423L308.779 81.4965V76.5718V71.6111L312.482 73.1209C314.495 73.9477 316.364 74.7385 316.616 74.8823ZM328.047 79.4476C329.988 80.2384 331.713 81.0292 331.893 81.209C332.037 81.3527 332.109 83.5814 332.073 86.1696L331.965 90.8787L327.939 89.2611L323.877 87.6435V82.8266C323.877 80.1665 324.021 78.0097 324.165 78.0097C324.344 78.0097 326.07 78.6567 328.047 79.4476ZM282.179 83.869V88.65L278.62 90.5192C276.679 91.5617 274.953 92.3885 274.774 92.3885C274.594 92.3885 274.486 90.2316 274.558 87.6435L274.666 82.8625L278.153 81.0292C280.058 79.9868 281.747 79.16 281.927 79.124C282.071 79.0881 282.179 81.2449 282.179 83.869ZM343.468 85.7023L347.063 87.2121L347.171 91.9571C347.243 94.8688 347.135 96.7021 346.919 96.7021C346.703 96.7021 344.87 96.0191 342.785 95.1923L338.975 93.7185V88.9016C338.975 85.3069 339.083 84.1207 339.442 84.1566C339.658 84.1566 341.491 84.8755 343.468 85.7023ZM296.557 94.4734V99.3981L292.783 101.303C290.698 102.31 288.937 103.173 288.829 103.173C288.721 103.173 288.649 101.016 288.649 98.3557V93.5388L292.531 91.5257C294.652 90.4473 296.414 89.5487 296.485 89.5127C296.521 89.5127 296.557 91.7414 296.557 94.4734ZM314.639 92.2087L317.047 93.1793V98.1759V103.137L315.897 102.633C315.25 102.382 313.381 101.663 311.763 101.016L308.779 99.9014V94.8688V89.8722L310.505 90.5552C311.439 90.9146 313.273 91.6695 314.639 92.2087ZM330.455 98.5713L332.145 99.2903V104.143C332.145 108.78 332.109 108.96 331.462 108.744C331.066 108.636 329.233 107.918 327.4 107.163L324.057 105.833L323.949 100.908L323.841 96.0191L326.286 96.9178C327.616 97.421 329.485 98.1759 330.455 98.5713ZM343.288 103.64L347.063 105.222L347.171 110.11L347.279 115.035L345.553 114.352C344.618 113.993 342.749 113.238 341.419 112.698L338.975 111.728V106.911C338.975 104.251 339.083 102.094 339.262 102.094C339.406 102.094 341.204 102.813 343.288 103.64ZM312.913 109.787L316.867 111.368L316.975 116.257C317.011 118.953 316.939 121.146 316.796 121.146C316.652 121.146 314.782 120.463 312.662 119.672L308.779 118.162V113.202C308.779 110.434 308.815 108.205 308.887 108.205C308.959 108.205 310.756 108.924 312.913 109.787ZM328.263 115.826L332.145 117.372V122.332C332.145 125.064 332.037 127.221 331.893 127.149C331.713 127.041 329.88 126.286 327.759 125.46L323.877 123.95V119.133C323.877 116.473 323.985 114.316 324.129 114.316C324.272 114.316 326.142 114.999 328.263 115.826ZM237.604 119.816V124.202L234.118 125.711C232.176 126.538 230.307 127.329 229.948 127.473C229.373 127.688 229.337 127.401 229.408 123.267L229.516 118.845L233.291 117.156C235.376 116.221 237.173 115.43 237.353 115.43C237.497 115.395 237.604 117.372 237.604 119.816ZM257.914 117.767L261.689 118.702V123.015C261.689 127.185 261.653 127.329 260.97 127.149C260.574 127.041 258.705 126.61 256.836 126.143L253.421 125.316V121.074C253.421 118.414 253.565 116.832 253.78 116.832C253.996 116.832 255.865 117.264 257.914 117.767ZM272.94 121.541L276.427 122.368V126.61C276.427 128.947 276.319 130.852 276.175 130.852C275.852 130.852 271.79 129.917 269.885 129.378L268.519 129.018V124.705C268.519 121.362 268.627 120.391 268.986 120.535C269.202 120.607 270.999 121.074 272.94 121.541ZM222.147 126.574V130.888L220.997 131.391C220.35 131.643 218.481 132.433 216.827 133.152L213.843 134.41L213.951 129.917L214.059 125.388L217.654 123.842C219.631 122.979 221.464 122.26 221.716 122.26C222.039 122.224 222.147 123.303 222.147 126.574ZM313.524 128.299L316.867 129.63L316.975 134.59C317.047 138.508 316.975 139.515 316.616 139.407C316.364 139.299 314.495 138.58 312.482 137.825L308.779 136.423V131.463C308.779 126.682 308.815 126.502 309.462 126.718C309.858 126.826 311.691 127.545 313.524 128.299ZM237.497 139.695C237.461 139.767 235.591 140.629 233.363 141.6L229.301 143.397L229.408 138.868L229.516 134.303L233.47 132.613L237.425 130.888L237.532 135.237C237.568 137.61 237.568 139.623 237.497 139.695ZM257.914 132.505L261.689 133.44V137.718C261.689 140.09 261.617 141.995 261.509 141.995C261.437 141.995 259.568 141.564 257.375 141.061L253.421 140.126V135.848C253.421 133.152 253.565 131.571 253.78 131.571C253.996 131.571 255.865 132.002 257.914 132.505ZM330.455 134.878L332.145 135.597V140.45C332.145 144.188 332.037 145.266 331.713 145.159C331.462 145.051 329.593 144.368 327.58 143.577L323.877 142.175V137.25V132.326L326.321 133.224C327.652 133.727 329.485 134.482 330.455 134.878ZM271.862 135.884C276.787 137.106 276.427 136.675 276.427 141.456C276.427 143.721 276.355 145.59 276.247 145.59C276.139 145.59 274.342 145.159 272.293 144.655L268.519 143.721V139.443C268.519 137.071 268.627 135.165 268.734 135.165C268.842 135.165 270.244 135.489 271.862 135.884ZM222.075 142.067L221.967 146.453L218.552 147.927C216.683 148.753 214.85 149.508 214.526 149.652C213.915 149.868 213.879 149.508 213.879 145.446V141.025L217.582 139.371C219.595 138.472 221.464 137.718 221.716 137.718C222.075 137.682 222.147 138.688 222.075 142.067ZM312.913 146.417L316.867 147.962L316.975 152.923C317.047 156.841 316.975 157.848 316.616 157.74C316.364 157.632 314.495 156.949 312.482 156.158L308.779 154.756V149.832C308.779 147.1 308.815 144.871 308.887 144.871C308.923 144.871 310.756 145.554 312.913 146.417ZM257.16 147.064C262.012 148.214 261.689 147.819 261.689 152.6C261.689 154.864 261.581 156.734 261.437 156.734C261.329 156.734 259.46 156.302 257.303 155.799L253.421 154.828V150.587C253.421 148.214 253.529 146.309 253.637 146.309C253.78 146.309 255.362 146.668 257.16 147.064ZM237.532 151.018L237.425 155.368L233.506 157.129C231.35 158.1 229.516 158.89 229.444 158.89C229.373 158.89 229.337 156.877 229.337 154.433V150.011L233.039 148.358C235.052 147.459 236.921 146.704 237.173 146.704C237.532 146.668 237.604 147.675 237.532 151.018ZM272.653 150.838L276.427 151.773V156.051C276.427 158.423 276.355 160.328 276.247 160.328C276.139 160.328 274.342 159.897 272.293 159.394L268.519 158.459V154.181C268.519 151.809 268.591 149.904 268.698 149.904C268.806 149.904 270.604 150.335 272.653 150.838ZM327.903 152.096C329.952 152.887 331.749 153.678 331.893 153.822C332.037 153.966 332.109 156.194 332.073 158.783L331.965 163.492L328.011 161.982L324.057 160.472L323.949 155.547C323.913 152.851 323.949 150.623 324.057 150.623C324.129 150.623 325.89 151.27 327.903 152.096ZM170.743 154.002V156.662L168.406 157.237C167.148 157.56 165.926 157.812 165.71 157.812C165.495 157.812 165.351 156.769 165.351 155.116V152.456L166.897 152.06C167.723 151.845 168.586 151.593 168.766 151.521C168.982 151.449 169.485 151.377 169.952 151.377C170.707 151.341 170.743 151.485 170.743 154.002ZM183.253 152.923L185.122 153.57V156.23C185.122 159.214 185.194 159.178 182.426 158.207L180.628 157.56L180.521 154.756C180.449 152.6 180.521 152.024 180.88 152.132C181.132 152.24 182.21 152.6 183.253 152.923ZM222.147 157.56V161.982L218.481 163.527C216.432 164.39 214.562 165.181 214.347 165.253C213.987 165.397 213.879 164.39 213.879 160.975V156.482L217.762 154.828C219.883 153.93 221.716 153.175 221.896 153.139C222.039 153.139 222.147 155.116 222.147 157.56ZM160.678 156.338V159.178L158.341 159.753C157.083 160.077 155.933 160.328 155.825 160.328C155.717 160.328 155.645 159.07 155.717 157.56L155.825 154.792L158.162 154.181C159.456 153.858 160.534 153.534 160.606 153.534C160.642 153.498 160.678 154.756 160.678 156.338ZM191.628 155.691L193.749 156.482V159.142C193.749 161.155 193.641 161.802 193.318 161.694C193.066 161.586 191.988 161.227 190.981 160.903L189.076 160.256V157.596C189.076 156.122 189.184 154.936 189.292 154.936C189.435 154.936 190.478 155.296 191.628 155.691ZM150.9 158.783L150.792 161.55L148.348 162.162C145.472 162.88 145.508 162.916 145.652 159.573L145.76 157.273L148.096 156.662C149.391 156.338 150.577 156.086 150.721 156.051C150.864 156.015 150.972 157.273 150.9 158.783ZM170.743 163.707V166.367L168.406 166.942C167.148 167.266 165.926 167.518 165.71 167.518C165.495 167.518 165.351 166.475 165.351 164.858V162.233L167.256 161.658C170.707 160.652 170.743 160.652 170.743 163.707ZM257.735 161.982L261.689 162.916V167.194C261.689 170.034 261.545 171.472 261.293 171.472C261.078 171.472 259.676 171.148 258.166 170.789C256.62 170.429 254.967 169.998 254.428 169.89L253.421 169.674V165.361C253.421 162.988 253.493 161.047 253.601 161.047C253.673 161.047 255.542 161.479 257.735 161.982ZM183.253 162.629L185.122 163.276V165.936C185.122 168.92 185.194 168.884 182.426 167.913L180.628 167.266L180.521 164.462C180.449 162.305 180.521 161.73 180.88 161.838C181.132 161.946 182.21 162.305 183.253 162.629ZM237.604 166.547V170.933L234.118 172.442C232.176 173.269 230.307 174.06 229.948 174.204C229.373 174.419 229.337 174.132 229.408 169.998L229.516 165.612L233.291 163.887C235.376 162.952 237.173 162.162 237.353 162.162C237.497 162.126 237.604 164.103 237.604 166.547ZM160.678 166.008V168.848L158.629 169.315C157.479 169.567 156.328 169.854 156.077 169.962C155.717 170.07 155.645 169.495 155.717 167.302L155.825 164.462L157.982 163.887C159.168 163.563 160.247 163.276 160.426 163.24C160.57 163.24 160.678 164.462 160.678 166.008ZM312.913 164.75L316.867 166.295L316.975 171.256C317.047 175.893 317.011 176.217 316.436 176.001C316.077 175.893 314.207 175.174 312.302 174.419L308.779 173.089V168.165C308.779 165.433 308.815 163.204 308.887 163.204C308.923 163.204 310.756 163.887 312.913 164.75ZM191.88 165.505L193.749 166.152V168.812C193.749 171.831 193.749 171.831 191.053 170.789L189.256 170.106L189.148 167.338C189.076 165.181 189.148 164.606 189.507 164.714C189.759 164.822 190.837 165.181 191.88 165.505ZM271.826 165.325C273.264 165.72 274.881 166.116 275.457 166.224L276.427 166.439V170.753C276.427 173.125 276.355 175.066 276.247 175.066C276.139 175.066 274.342 174.635 272.293 174.132L268.519 173.197V168.92C268.519 166.331 268.663 164.642 268.878 164.642C269.058 164.642 270.388 164.965 271.826 165.325ZM150.9 168.488L150.792 171.256L148.995 171.723C148.025 171.975 146.838 172.191 146.371 172.191C145.58 172.191 145.544 172.083 145.652 169.603L145.76 166.978L147.917 166.367C151.188 165.469 151.008 165.361 150.9 168.488ZM222.147 173.018V177.439L218.265 179.128C216.144 180.063 214.275 180.818 214.131 180.818C213.987 180.818 213.879 178.841 213.879 176.397V172.011L217.762 170.357C219.883 169.423 221.716 168.668 221.896 168.632C222.039 168.632 222.147 170.573 222.147 173.018ZM328.263 170.465L332.145 171.939V176.9V181.86L330.995 181.357C330.348 181.106 328.478 180.387 326.861 179.74L323.877 178.625V173.772C323.877 171.112 323.985 168.955 324.129 168.955C324.237 168.955 326.106 169.638 328.263 170.465ZM170.743 173.413V176.073L168.406 176.648C167.148 176.972 165.926 177.223 165.71 177.223C165.495 177.223 165.351 176.181 165.351 174.527V171.867L166.897 171.472C167.723 171.256 168.586 171.004 168.766 170.933C168.982 170.861 169.485 170.789 169.952 170.789C170.707 170.753 170.743 170.897 170.743 173.413ZM183.828 172.694L185.122 173.233V175.714C185.122 177.08 185.05 178.266 184.942 178.374C184.834 178.481 183.756 178.23 182.606 177.834L180.449 177.08V174.419V171.723L181.491 171.939C182.102 172.083 183.145 172.406 183.828 172.694ZM160.678 175.714V178.553L158.629 179.021C157.479 179.272 156.328 179.56 156.113 179.632C155.753 179.776 155.645 179.093 155.645 177.008V174.168L157.91 173.593C159.132 173.269 160.247 172.982 160.426 172.982C160.57 172.946 160.678 174.168 160.678 175.714ZM191.88 175.246L193.749 175.929V178.589V181.249L192.599 180.998C191.952 180.854 190.873 180.53 190.262 180.243L189.076 179.776V177.008C189.076 174.959 189.184 174.312 189.543 174.419C189.759 174.527 190.837 174.887 191.88 175.246ZM150.972 178.122V180.782L149.642 181.177C148.887 181.357 147.665 181.645 146.946 181.753L145.58 182.004V179.272V176.576L147.665 176.037C151.116 175.138 150.972 175.066 150.972 178.122ZM258.633 177.008L261.509 177.762L261.617 181.968C261.653 184.485 261.581 186.21 261.365 186.21C261.042 186.21 255.218 184.88 254.068 184.556C253.493 184.377 253.421 183.838 253.421 180.099V175.785L254.607 176.037C255.218 176.145 257.052 176.612 258.633 177.008ZM237.532 182.292L237.425 186.641L233.722 188.223C231.673 189.086 229.84 189.805 229.66 189.805C229.444 189.805 229.373 187.971 229.408 185.419L229.516 181.07L233.111 179.524C235.088 178.697 236.921 177.978 237.173 177.978C237.532 177.942 237.604 178.913 237.532 182.292ZM271.682 180.063C273.228 180.423 274.881 180.854 275.457 180.962L276.427 181.177V185.491C276.427 187.864 276.355 189.805 276.247 189.805C276.139 189.805 274.342 189.373 272.293 188.87L268.519 187.935V183.658C268.519 181.285 268.627 179.38 268.734 179.38C268.842 179.38 270.172 179.704 271.682 180.063ZM170.743 182.939C170.743 184.341 170.563 185.563 170.348 185.671C169.988 185.922 166.214 186.893 165.639 186.929C165.459 186.929 165.351 185.707 165.351 184.233V181.573L166.897 181.177C167.723 180.962 168.586 180.71 168.766 180.638C168.982 180.566 169.485 180.494 169.952 180.494C170.707 180.459 170.743 180.602 170.743 182.939ZM183.684 182.436L184.942 182.867L185.05 185.671C185.122 187.828 185.05 188.403 184.69 188.295C184.439 188.187 183.36 187.828 182.354 187.504L180.449 186.857V184.197V181.537L181.455 181.753C181.994 181.896 183.001 182.184 183.684 182.436ZM312.841 183.011C317.443 184.736 317.047 184.089 317.047 189.661C317.047 194.19 317.011 194.55 316.436 194.298C316.077 194.19 314.207 193.471 312.302 192.752L308.779 191.458V186.462C308.779 181.824 308.815 181.465 309.426 181.717C309.75 181.86 311.296 182.436 312.841 183.011ZM160.678 185.419V188.259L158.629 188.726C157.479 188.978 156.328 189.266 156.113 189.337C155.753 189.481 155.645 188.798 155.645 186.677V183.802L157.91 183.262C159.132 182.939 160.247 182.687 160.426 182.651C160.57 182.651 160.678 183.873 160.678 185.419ZM193.749 188.259C193.749 190.02 193.605 190.883 193.318 190.883C193.102 190.883 192.06 190.596 190.981 190.272L189.076 189.661V186.893V184.125L191.413 184.88L193.749 185.635V188.259ZM222.147 188.762V193.076L220.997 193.579C220.35 193.831 218.481 194.622 216.827 195.341L213.843 196.599L213.951 192.105L214.059 187.576L217.654 186.03C219.631 185.168 221.464 184.449 221.716 184.449C222.039 184.413 222.147 185.491 222.147 188.762ZM150.972 187.828V190.488L149.642 190.847C148.887 191.027 147.665 191.315 146.946 191.458L145.58 191.674V188.978V186.282L147.665 185.743C151.116 184.844 150.972 184.772 150.972 187.828ZM327.544 188.511C329.377 189.194 331.174 189.841 331.534 189.984C332.073 190.2 332.145 190.811 332.145 195.053C332.145 197.713 332.001 199.87 331.821 199.87C331.678 199.87 329.844 199.223 327.795 198.468L324.057 197.066L323.949 192.177C323.913 189.481 323.949 187.288 324.021 187.288C324.129 187.288 325.71 187.828 327.544 188.511ZM170.743 192.788V195.448L168.874 195.88C167.831 196.095 166.609 196.383 166.178 196.491C165.387 196.707 165.351 196.635 165.351 194.011V191.279L166.897 190.883C167.723 190.667 168.586 190.416 168.766 190.344C168.982 190.272 169.485 190.2 169.952 190.2C170.707 190.164 170.743 190.308 170.743 192.788ZM258.274 191.71L261.509 192.501L261.617 196.707C261.725 201.667 262.156 201.344 257.016 200.086L253.601 199.259L253.493 194.873L253.385 190.488L254.212 190.703C254.679 190.811 256.512 191.243 258.274 191.71ZM183.145 191.926C184.87 192.537 184.942 192.609 185.05 194.046C185.194 195.772 185.122 195.772 182.426 195.089L180.628 194.622L180.521 192.932C180.377 190.991 180.449 190.991 183.145 191.926ZM160.678 195.125V197.965L158.629 198.432C157.479 198.684 156.328 198.971 156.113 199.043C155.753 199.187 155.645 198.504 155.645 196.383V193.507L157.91 192.968C159.132 192.645 160.247 192.393 160.426 192.357C160.57 192.357 160.678 193.579 160.678 195.125ZM237.532 197.749L237.425 202.135L234.189 203.536C232.428 204.327 230.595 205.118 230.127 205.298L229.301 205.621L229.408 201.092L229.516 196.599L233.111 195.017C235.088 194.154 236.921 193.435 237.173 193.399C237.532 193.399 237.604 194.406 237.532 197.749ZM192.455 194.981C193.533 195.448 193.749 195.7 193.749 196.599C193.749 197.857 193.605 197.893 191.053 197.246C189.328 196.778 189.256 196.707 189.148 195.412C189.04 194.046 189.04 194.011 190.118 194.226C190.694 194.37 191.772 194.694 192.455 194.981ZM272.832 194.981L276.247 195.808L276.355 200.229C276.427 203.68 276.355 204.579 275.996 204.435C275.744 204.363 273.947 203.896 272.042 203.465L268.519 202.674V198.396C268.519 195.197 268.627 194.118 268.986 194.118C269.202 194.154 270.963 194.514 272.832 194.981ZM150.972 197.497V200.157L148.636 200.733C147.377 201.056 146.155 201.308 145.94 201.308C145.724 201.308 145.58 200.265 145.58 198.612C145.58 195.988 145.616 195.916 146.587 195.7C147.126 195.592 148.06 195.341 148.636 195.197C150.936 194.586 150.972 194.586 150.972 197.497ZM170.743 201.452C170.743 202.853 170.563 203.177 168.946 204.687C167.795 205.765 166.861 206.34 166.25 206.34C165.351 206.34 165.351 206.304 165.351 203.644V200.984L166.897 200.589C167.723 200.373 168.586 200.122 168.766 200.05C168.982 199.978 169.485 199.906 169.952 199.906C170.671 199.87 170.743 200.05 170.743 201.452ZM222.147 202.386C222.147 203.752 222.039 204.902 221.896 204.902C221.356 204.867 214.886 203.177 214.742 202.997C214.562 202.818 220.997 199.942 221.716 199.906C222.003 199.87 222.147 200.589 222.147 202.386ZM313.524 201.559L317.047 202.889V207.85V212.811L313.56 211.517C311.619 210.798 309.75 210.151 309.426 210.043C308.851 209.863 308.779 209.288 308.779 204.831C308.779 200.193 308.815 199.798 309.39 200.014C309.75 200.157 311.619 200.84 313.524 201.559ZM160.678 204.831V207.67L158.629 208.138C157.479 208.389 156.328 208.677 156.113 208.749C155.753 208.893 155.645 208.21 155.645 206.089V203.213L157.91 202.674C159.132 202.35 160.247 202.099 160.426 202.063C160.57 202.063 160.678 203.285 160.678 204.831ZM150.972 207.203V209.863L148.636 210.438C147.377 210.762 146.155 211.013 145.94 211.013C145.724 211.013 145.58 209.971 145.58 208.317C145.58 205.693 145.616 205.621 146.587 205.406C147.126 205.298 148.06 205.046 148.636 204.902C150.936 204.291 150.972 204.291 150.972 207.203ZM258.274 206.448L261.509 207.239L261.617 210.977C261.725 214.572 261.689 214.68 260.97 214.5C260.574 214.392 258.705 213.961 256.836 213.494L253.421 212.667V208.964C253.421 205.298 253.421 205.262 254.248 205.442C254.679 205.55 256.512 205.981 258.274 206.448ZM328.37 207.023L331.965 208.389L332.073 213.314C332.145 217.232 332.073 218.239 331.713 218.131C331.462 218.023 329.593 217.34 327.58 216.585L323.877 215.219V210.402C323.877 206.808 323.985 205.621 324.344 205.621C324.56 205.657 326.393 206.268 328.37 207.023ZM272.653 209.755C274.63 210.259 276.283 210.654 276.319 210.654C276.391 210.654 276.427 212.343 276.427 214.428C276.427 218.814 276.787 218.598 271.934 217.376L268.698 216.549L268.591 212.703C268.555 210.582 268.627 208.857 268.77 208.857C268.914 208.857 270.676 209.252 272.653 209.755ZM161.037 211.84C161.037 211.876 159.815 213.134 158.341 214.608L155.645 217.268V215.075V212.883L157.91 212.343C160.211 211.804 161.037 211.66 161.037 211.84ZM150.972 216.909V219.569L148.636 220.144C147.377 220.467 146.155 220.719 145.94 220.719C145.724 220.719 145.58 219.677 145.58 218.023V215.363L147.126 214.968C147.953 214.752 148.815 214.5 148.995 214.428C149.211 214.357 149.714 214.285 150.181 214.285C150.936 214.249 150.972 214.392 150.972 216.909ZM313.56 219.928L317.047 221.186V223.271C317.047 225.68 317.443 225.428 312.302 226.255C310.577 226.507 309.067 226.65 308.959 226.543C308.851 226.435 308.779 224.494 308.779 222.229C308.779 218.454 308.815 218.131 309.426 218.383C309.75 218.526 311.619 219.209 313.56 219.928ZM329.736 225.824C330.887 226.219 331.929 226.758 332.001 227.01C332.109 227.261 332.145 228.448 332.073 229.706L331.965 231.935L329.413 228.771C326.286 224.853 326.034 224.458 326.969 224.817C327.328 224.997 328.586 225.428 329.736 225.824ZM325.567 230.317C327.58 232.689 344.439 253.718 344.87 254.401C345.05 254.761 344.403 254.869 341.922 254.869H338.723L333.187 248.003C330.132 244.228 326.861 240.095 325.854 238.836C324.884 237.578 323.985 236.572 323.877 236.572C323.769 236.572 320.067 240.67 315.609 245.702L307.521 254.869H298.786H290.087L287.463 252.352L284.875 249.872L293.502 249.8C298.247 249.764 302.525 249.692 302.992 249.656C303.531 249.62 304.538 248.866 305.508 247.751C310.792 241.856 323.374 228.268 323.589 228.268C323.697 228.268 324.596 229.203 325.567 230.317ZM322.08 257.744V260.62H319.384H316.688V257.744V254.869H319.384H322.08V257.744ZM330.204 255.66C330.096 256.127 329.988 257.421 329.988 258.535V260.62H327.292H324.596V257.744V254.869H327.508C330.348 254.869 330.419 254.905 330.204 255.66ZM322.08 266.012V268.888H319.384H316.688V266.012V263.137H319.384H322.08V266.012ZM329.988 266.012V268.888H327.292H324.596V266.012V263.137H327.292H329.988V266.012Z" fill="#C8C8C8"/>
<path d="M369.53 190.164C369.53 240.706 369.638 253.431 369.961 253.179C370.86 252.64 379.487 245.343 385.993 239.627L392.536 233.876V229.634C392.536 226.974 392.68 225.392 392.895 225.392C393.111 225.392 394.585 225.895 396.202 226.507L399.114 227.657L403.931 222.804L408.712 217.951L408.64 181.501L408.532 145.051L405.836 143.721C403.068 142.319 372.801 128.263 370.716 127.365L369.53 126.898V190.164ZM382.471 142.966C383.765 143.505 385.023 144.044 385.274 144.26C385.562 144.512 385.706 145.913 385.706 149.041C385.706 151.485 385.634 153.498 385.526 153.498C385.418 153.498 383.549 152.743 381.392 151.809L377.438 150.155V145.518V140.917L378.804 141.492C379.523 141.78 381.177 142.463 382.471 142.966ZM396.706 148.861C398.647 149.688 400.408 150.479 400.552 150.622C400.732 150.766 400.875 152.851 400.911 155.26C400.983 158.926 400.911 159.609 400.444 159.573C400.157 159.573 398.287 158.89 396.31 158.064L392.716 156.554L392.608 151.953C392.572 149.436 392.644 147.387 392.823 147.387C393.003 147.387 394.729 148.034 396.706 148.861ZM381.752 158.351L385.526 159.933L385.634 164.606L385.742 169.279L381.572 167.589L377.438 165.9V161.299C377.438 158.782 377.546 156.733 377.726 156.733C377.869 156.733 379.667 157.452 381.752 158.351ZM397.137 164.642L400.804 166.188V170.753V175.354L396.67 173.7L392.536 172.011V167.41C392.536 163.851 392.644 162.809 393.003 162.952C393.219 163.06 395.088 163.815 397.137 164.642ZM383.297 174.527L385.706 175.498V180.171C385.706 184.628 385.67 184.808 385.023 184.592C384.627 184.485 382.794 183.766 380.961 183.011L377.618 181.681L377.51 176.936L377.402 172.191L379.128 172.874C380.062 173.233 381.931 173.988 383.297 174.527ZM396.957 180.027L400.875 181.717L400.911 186.318C400.947 188.834 400.911 190.883 400.804 190.883C400.696 190.883 398.826 190.164 396.67 189.301L392.716 187.72L392.608 183.011C392.572 180.423 392.644 178.302 392.787 178.338C392.931 178.338 394.836 179.092 396.957 180.027ZM382.219 189.805L385.526 191.207L385.634 195.916L385.742 200.625L384.376 200.014C383.621 199.69 381.752 198.935 380.242 198.36L377.438 197.246V192.609C377.438 187.216 376.863 187.576 382.219 189.805ZM396.993 195.7L400.911 197.246L400.947 201.775C400.983 204.615 400.84 206.34 400.624 206.34C400.444 206.34 398.575 205.621 396.49 204.795L392.716 203.285L392.608 198.684C392.572 196.167 392.644 194.118 392.787 194.118C392.931 194.118 394.836 194.837 396.993 195.7ZM385.706 211.445C385.706 213.997 385.598 216.046 385.454 216.046C385.31 216.046 383.441 215.363 381.32 214.5L377.438 212.99V208.281V203.536L381.572 205.226L385.706 206.879V211.445ZM396.67 211.157L400.624 212.739L400.732 217.448L400.84 222.193L399.474 221.582C398.719 221.258 396.849 220.539 395.34 219.928L392.536 218.85V214.213C392.536 211.66 392.572 209.576 392.644 209.576C392.716 209.576 394.513 210.294 396.67 211.157ZM383.297 221.618L385.706 222.588V227.261C385.706 231.575 385.67 231.935 385.095 231.719C384.735 231.575 382.866 230.856 380.961 230.137L377.438 228.807V224.062V219.281L379.164 219.964C380.098 220.324 381.931 221.043 383.297 221.618Z" fill="#C8C8C8"/>
<path d="M490.132 138.077C485.602 140.27 476.867 144.44 470.72 147.387C464.609 150.299 454.077 155.332 447.355 158.531C440.633 161.766 433.048 165.361 430.496 166.583L425.823 168.812L431.754 171.903C434.989 173.593 440.561 176.468 444.12 178.302C447.678 180.135 450.662 181.681 450.698 181.753C450.878 181.86 446.025 188.259 441.459 193.939C425.247 213.997 405.584 234.199 385.526 251.31C330.491 298.293 271.071 327.014 204.713 338.805C171.246 344.736 127.427 347.612 106.038 345.275C92.1629 343.766 83.6435 340.494 81.235 335.713C79.8331 333.017 80.4442 329.135 82.7448 325.756C87.2022 319.25 96.7641 312.132 112.509 303.721C115.78 301.959 118.332 300.521 118.224 300.521C117.506 300.521 104.385 306.129 98.4896 309.005C83.9311 316.086 74.477 322.305 68.0425 329.027C63.8727 333.413 62.3629 336.217 62.3629 339.704C62.3629 341.609 62.5426 342.364 63.3694 343.766C66.8922 349.769 78.0358 353.363 98.6693 355.161C110.568 356.203 133.825 355.952 152.41 354.622C212.981 350.2 272.689 335.929 326.034 313.103C369.53 294.482 407.166 271.009 440.525 241.604C451.345 232.078 467.449 215.039 475.645 204.471L478.916 200.265L480.57 201.38C483.194 203.177 501.131 216.046 502.569 217.16C503.288 217.735 504.007 218.203 504.115 218.203C504.69 218.203 504.223 205.873 503.073 190.416C502.39 181.106 501.275 165.433 500.556 155.655C499.19 136.136 499.011 134.087 498.651 134.087C498.507 134.123 494.697 135.92 490.132 138.077Z" fill="#D4AF37"/>
<path d="M171.426 224.062C160.893 234.091 130.087 263.352 123.473 269.571C121.316 271.656 117.685 275.107 115.492 277.228L111.43 281.11H115.277H119.123L124.731 275.538C127.822 272.483 130.41 269.966 130.482 269.966C130.59 269.966 130.626 285.1 130.554 303.577L130.482 337.187H131.669C134.113 337.187 148.204 336.432 155.465 335.893C185.373 333.772 212.729 329.171 238.251 322.054C241.163 321.227 243.751 320.472 244.003 320.328C244.398 320.112 244.47 316.014 244.434 298.221C244.434 284.884 244.542 276.401 244.758 276.509C244.937 276.545 248.101 279.277 251.767 282.548L258.454 288.479V302.031C258.454 310.551 258.597 315.619 258.813 315.619C260.035 315.619 277.11 308.933 286.744 304.655C297.528 299.91 323.589 286.178 325.674 284.13C326.106 283.698 321.648 283.626 292.531 283.626H258.849L240.768 267.414C230.81 258.463 216.719 245.81 209.386 239.232C191.808 223.451 181.779 214.608 181.527 214.608C181.419 214.644 176.89 218.886 171.426 224.062ZM182.605 272.303V279.672L175.704 279.6L168.766 279.492L168.658 272.662C168.622 268.924 168.658 265.653 168.73 265.401C168.874 265.042 170.527 264.934 175.776 264.934H182.605V272.303ZM203.455 272.303V279.672H196.445H189.435V272.303V264.934H196.445H203.455V272.303ZM182.605 293.512V300.881L175.704 300.809L168.766 300.701L168.658 293.404L168.586 286.143H175.596H182.605V293.512ZM203.455 293.512V300.881H196.445H189.435V293.512V286.143H196.445H203.455V293.512Z" fill="#C8C8C8"/>
<path d="M171.426 224.062C160.893 234.091 130.087 263.352 123.473 269.571C121.316 271.656 117.685 275.107 115.492 277.228L111.43 281.11H115.277H119.123L124.731 275.538C127.822 272.483 130.41 269.966 130.482 269.966C130.59 269.966 130.626 285.1 130.554 303.577L130.482 337.187H131.669C134.113 337.187 148.204 336.432 155.465 335.893C185.373 333.772 212.729 329.171 238.251 322.054C241.163 321.227 243.751 320.472 244.003 320.328C244.398 320.112 244.47 316.014 244.434 298.221C244.434 284.884 244.542 276.401 244.758 276.509C244.937 276.545 248.101 279.277 251.767 282.548L258.454 288.479V302.031C258.454 310.551 258.597 315.619 258.813 315.619C260.035 315.619 277.11 308.933 286.744 304.655C297.528 299.91 323.589 286.178 325.674 284.13C326.106 283.698 321.648 283.626 292.531 283.626H258.849L240.768 267.414C230.81 258.463 216.719 245.81 209.386 239.232C191.808 223.451 181.779 214.608 181.527 214.608C181.419 214.644 176.89 218.886 171.426 224.062ZM182.605 272.303V279.672L175.704 279.6L168.766 279.492L168.658 272.662C168.622 268.924 168.658 265.653 168.73 265.401C168.874 265.042 170.527 264.934 175.776 264.934H182.605V272.303ZM203.455 272.303V279.672H196.445H189.435V272.303V264.934H196.445H203.455V272.303ZM182.605 293.512V300.881L175.704 300.809L168.766 300.701L168.658 293.404L168.586 286.143H175.596H182.605V293.512ZM203.455 293.512V300.881H196.445H189.435V293.512V286.143H196.445H203.455V293.512Z" fill="#C8C8C8"/>
<path d="M473.776 225.608C466.191 234.702 454.113 247.104 447.247 252.892L444.695 255.048V303.289L444.659 351.566H460.655H476.651V348.546C476.651 346.462 476.508 345.455 476.22 345.347C475.861 345.203 475.861 345.096 476.22 344.844C476.58 344.592 476.651 332.047 476.58 283.447L476.472 222.409L473.776 225.608Z" fill="#D4AF37"/>
<path d="M430.1 266.947C423.917 271.764 414.823 278.27 408.28 282.584L403.679 285.567L403.643 306.093C403.643 317.345 403.571 331.184 403.464 336.828C403.392 342.471 403.428 348.079 403.535 349.337L403.751 351.566H419.712H435.672V307.172C435.672 282.764 435.636 262.777 435.564 262.777C435.528 262.777 433.048 264.646 430.1 266.947Z" fill="#D4AF37"/>
<path d="M390.199 293.943C384.16 297.574 375.784 302.211 368.739 305.913L362.34 309.22V330.393V351.566H378.337H394.333V321.55C394.333 305.051 394.297 291.535 394.261 291.535C394.189 291.571 392.392 292.649 390.199 293.943Z" fill="#D4AF37"/>
<path d="M351.376 314.433C349.328 315.547 336.243 321.263 328.838 324.246L321.361 327.266V339.416V351.566H337.357H353.354V332.694C353.354 317.812 353.246 313.822 352.922 313.822C352.671 313.858 351.988 314.109 351.376 314.433Z" fill="#D4AF37"/>
<path d="M309.498 331.112C305.436 332.622 287.319 338.661 284.803 339.344L283.257 339.739V345.635V351.566H298.355H313.452V340.602C313.452 334.563 313.416 329.638 313.38 329.674C313.309 329.674 311.583 330.321 309.498 331.112Z" fill="#D4AF37"/>
<path d="M270.855 342.615C265.571 344.197 250.186 348.079 241.019 350.128L234.908 351.53H255.326L275.708 351.566V346.354C275.708 343.478 275.672 341.141 275.636 341.177C275.564 341.213 273.443 341.86 270.855 342.615Z" fill="#D4AF37"/>
<path d="M195.367 358.612C184.87 360.265 163.122 362.889 145.76 364.651C141.374 365.082 163.805 365.154 316.616 365.19L492.468 365.226V361.631V358.037L345.553 358.072C220.925 358.108 198.099 358.18 195.367 358.612Z" fill="#D4AF37"/>
<path d="M135.162 447.81H166.778V492.61C161.829 494.231 156.837 495.426 151.802 496.194C146.767 496.962 141.05 497.346 134.65 497.346C125.178 497.346 117.199 495.469 110.714 491.714C104.229 487.874 99.2793 482.455 95.866 475.458C92.538 468.375 90.874 460.013 90.874 450.37C90.874 440.813 92.7513 432.535 96.506 425.538C100.261 418.541 105.637 413.122 112.634 409.282C119.717 405.357 128.25 403.394 138.234 403.394C143.354 403.394 148.175 403.863 152.698 404.802C157.306 405.741 161.573 407.063 165.498 408.77L161.146 418.754C157.903 417.303 154.234 416.066 150.138 415.042C146.127 414.018 141.946 413.506 137.594 413.506C130.341 413.506 124.111 414.999 118.906 417.986C113.701 420.973 109.733 425.239 107.002 430.786C104.271 436.247 102.906 442.775 102.906 450.37C102.906 457.623 104.058 464.066 106.362 469.698C108.751 475.245 112.463 479.597 117.498 482.754C122.533 485.826 129.146 487.362 137.338 487.362C140.069 487.362 142.458 487.277 144.506 487.106C146.639 486.85 148.559 486.551 150.266 486.21C152.058 485.869 153.722 485.527 155.258 485.186V458.05H135.162V447.81Z" fill="white"/>
<path d="M366.442 404.674L342.122 496.066H330.474L312.682 436.162C312.17 434.37 311.658 432.535 311.146 430.658C310.634 428.781 310.165 426.989 309.738 425.282C309.311 423.575 308.927 422.125 308.586 420.93C308.33 419.65 308.159 418.711 308.074 418.114C307.989 418.711 307.818 419.65 307.562 420.93C307.391 422.125 307.093 423.575 306.666 425.282C306.239 426.989 305.77 428.823 305.258 430.786C304.831 432.663 304.319 434.583 303.722 436.546L286.442 496.066H274.794L250.602 404.674H262.634L276.842 460.482C277.354 462.445 277.823 464.407 278.25 466.37C278.677 468.247 279.061 470.125 279.402 472.002C279.829 473.794 280.17 475.543 280.426 477.25C280.682 478.957 280.938 480.621 281.194 482.242C281.45 480.535 281.706 478.786 281.962 476.994C282.303 475.202 282.687 473.367 283.114 471.49C283.541 469.527 284.01 467.565 284.522 465.602C285.034 463.639 285.546 461.719 286.058 459.842L302.186 404.674H314.09L330.858 460.226C331.455 462.189 332.01 464.194 332.522 466.242C333.034 468.205 333.503 470.125 333.93 472.002C334.357 473.879 334.698 475.714 334.954 477.506C335.295 479.213 335.594 480.791 335.85 482.242C336.106 480.109 336.447 477.89 336.874 475.586C337.301 473.197 337.813 470.722 338.41 468.162C339.007 465.602 339.647 462.999 340.33 460.354L354.41 404.674H366.442Z" fill="white"/>
<path d="M362.442 404.674L338.122 496.066H326.474L308.682 436.162C308.17 434.37 307.658 432.535 307.146 430.658C306.634 428.781 306.165 426.989 305.738 425.282C305.311 423.575 304.927 422.125 304.586 420.93C304.33 419.65 304.159 418.711 304.074 418.114C303.989 418.711 303.818 419.65 303.562 420.93C303.391 422.125 303.093 423.575 302.666 425.282C302.239 426.989 301.77 428.823 301.258 430.786C300.831 432.663 300.319 434.583 299.722 436.546L282.442 496.066H270.794L246.602 404.674H258.634L272.842 460.482C273.354 462.445 273.823 464.407 274.25 466.37C274.677 468.247 275.061 470.125 275.402 472.002C275.829 473.794 276.17 475.543 276.426 477.25C276.682 478.957 276.938 480.621 277.194 482.242C277.45 480.535 277.706 478.786 277.962 476.994C278.303 475.202 278.687 473.367 279.114 471.49C279.541 469.527 280.01 467.565 280.522 465.602C281.034 463.639 281.546 461.719 282.058 459.842L298.186 404.674H310.09L326.858 460.226C327.455 462.189 328.01 464.194 328.522 466.242C329.034 468.205 329.503 470.125 329.93 472.002C330.357 473.879 330.698 475.714 330.954 477.506C331.295 479.213 331.594 480.791 331.85 482.242C332.106 480.109 332.447 477.89 332.874 475.586C333.301 473.197 333.813 470.722 334.41 468.162C335.007 465.602 335.647 462.999 336.33 460.354L350.41 404.674H362.442Z" fill="white"/>
<path d="M475.21 496.066H442.186V489.41L452.938 486.978V413.89L442.186 411.33V404.674H475.21V411.33L464.458 413.89V486.978L475.21 489.41V496.066Z" fill="white"/>
</g>
</g>
<defs>
<filter id="filter0_d_42_9105" x="9.53674e-06" y="-2.09808e-05" width="566.132" height="566.132" filterUnits="userSpaceOnUse" color-interpolation-filters="sRGB">
<feFlood flood-opacity="0" result="BackgroundImageFix"/>
<feColorMatrix in="SourceAlpha" type="matrix" values="0 0 0 0 0 0 0 0 0 0 0 0 0 0 0 0 0 0 127 0" result="hardAlpha"/>
<feMorphology radius="13.026" operator="dilate" in="SourceAlpha" result="effect1_dropShadow_42_9105"/>
<feOffset/>
<feGaussianBlur stdDeviation="10.02"/>
<feComposite in2="hardAlpha" operator="out"/>
<feColorMatrix type="matrix" values="0 0 0 0 1 0 0 0 0 1 0 0 0 0 1 0 0 0 0.21 0"/>
<feBlend mode="normal" in2="BackgroundImageFix" result="effect1_dropShadow_42_9105"/>
<feBlend mode="normal" in="SourceGraphic" in2="effect1_dropShadow_42_9105" result="shape"/>
</filter>
<linearGradient id="paint0_linear_42_9105" x1="701.566" y1="589.566" x2="-363.934" y2="-188.434" gradientUnits="userSpaceOnUse">
<stop offset="0.0110168" stop-color="#1B4332" stop-opacity="0.78"/>
<stop offset="0.132826" stop-color="#183F3E" stop-opacity="0.89"/>
<stop offset="0.448517" stop-color="#153C49"/>
<stop offset="0.884615" stop-color="#0F3460"/>
</linearGradient>
<clipPath id="clip0_42_9105">
<rect x="33.066" y="33.066" width="500" height="500" rx="33" fill="white"/>
</clipPath>
</defs>
</svg>
